<svg xmlns="http://www.w3.org/2000/svg"  viewBox="0 0 256 256" width="256px" height="256px"><rect width="73.6" height="73.6" x="17.6" y="17.599" fill="#44C7B6"/><rect width="19.175" height="73.606" x="17.604" y="17.595" fill="#4BDBC3"/><rect width="73.6" height="73.6" x="164.8" y="17.597" fill="#F9D335" transform="rotate(-180 201.6 54.397)"/><rect width="19.175" height="73.606" x="219.221" y="17.595" fill="#F2C300"/><rect width="73.6" height="73.6" x="91.2" y="17.599" fill="#5FCDFF"/><g><rect width="73.6" height="73.6" x="17.6" y="91.201" fill="#B76C6C"/><rect width="19.175" height="73.606" x="17.604" y="91.197" fill="#C98585"/><rect width="73.6" height="73.6" x="164.8" y="91.199" fill="#3193F3" transform="rotate(-180 201.6 127.999)"/><rect width="19.175" height="73.606" x="219.221" y="91.197" fill="#307FED"/><rect width="73.6" height="73.6" x="91.2" y="91.201" fill="#FF4A73"/></g><g><rect width="73.6" height="73.6" x="17.6" y="164.803" fill="#FFBB98"/><rect width="19.175" height="73.606" x="17.604" y="164.799" fill="#FFCAA6"/><rect width="73.6" height="73.6" x="164.8" y="164.801" fill="#FFE2E2" transform="rotate(-180 201.6 201.6)"/><rect width="19.175" height="73.606" x="219.221" y="164.799" fill="#FFCFCF"/><rect width="73.6" height="73.6" x="91.2" y="164.803" fill="#87828E"/></g><g><path fill="#5F266D" d="M242.399,17.598c0-2.209-1.791-4-4-4c-11.312,0-207.834,0.002-220.799,0.002c-2.209,0-4,1.791-4,4 c0,21.705,0,199.148,0,220.803c0,2.209,1.791,4,4,4c12.185,0,208.083-0.002,220.799-0.002c2.209,0,4-1.791,4-4 C242.399,216.74,242.399,39.395,242.399,17.598z M87.2,160.801h-65.6v-65.6h65.6V160.801z M160.8,160.801H95.2v-65.6h65.6V160.801 z M168.8,95.199h65.6v65.6h-65.6V95.199z M234.399,87.197h-65.6v-65.6h65.6V87.197z M160.8,87.199H95.2V21.6h65.6V87.199z M21.601,21.6h65.6v65.6h-65.6V21.6z M21.601,168.803h65.6v65.6h-65.6V168.803z M95.2,168.803h65.6v65.6H95.2V168.803z M234.399,234.4h-65.6v-65.6h65.6V234.4z"/><path fill="#5F266D" d="M36.779,68.5c-2.209,0-4,1.791-4,4V77c0,2.209,1.791,4,4,4s4-1.791,4-4v-4.5 C40.779,70.291,38.988,68.5,36.779,68.5z"/><path fill="#5F266D" d="M36.779,28.5c-2.209,0-4,1.791-4,4v25c0,2.209,1.791,4,4,4s4-1.791,4-4v-25 C40.779,30.291,38.988,28.5,36.779,28.5z"/></g></svg>